<?xml version="1.0" encoding="utf-8"?>
<!-- Generator: Adobe Illustrator 27.3.1, SVG Export Plug-In . SVG Version: 6.00 Build 0)  -->
<svg version="1.1" id="Layer_1" xmlns="http://www.w3.org/2000/svg" xmlns:xlink="http://www.w3.org/1999/xlink" x="0px" y="0px"
	 viewBox="0 0 419 53.6" style="enable-background:new 0 0 419 53.6;" xml:space="preserve">
<style type="text/css">
	.st0{fill:#7A55A3;}
	.st1{fill:#5BBA47;}
	.st2{fill:#010101;}
	.st3{fill:#7B55A3;}
	.st4{fill:#FFCD05;}
	.st5{fill:#FCF0B2;}
	.st6{fill:#5353A2;}
	.st7{fill:#D18D60;}
	.st8{fill:#A15B2C;}
</style>
<g>
	<path class="st0" d="M46.9,6.8L45.8,13c-0.2,1.3-1.5,2.4-2.9,2.4h-12c-0.3,0-0.5,0.2-0.6,0.5L25,45.4c-0.2,1.3-1.5,2.4-2.9,2.4
		h-8.2c-1.4,0-2.3-1.1-2-2.4l5.3-29.4c0.1-0.3-0.1-0.5-0.4-0.5h-12c-1.4,0-2.3-1.1-2-2.4L4,6.8c0.2-1.3,1.5-2.4,2.9-2.4h38
		C46.2,4.4,47.1,5.5,46.9,6.8z"/>
	<path class="st0" d="M71.7,20.1l-1,5.3c-0.1,0.7-0.7,1.2-1.4,1.2H52.7c0,0-0.1,0-0.1,0.1l-0.5,2.9l13.3,0c0.3,0,0.6,0.1,0.8,0.4
		c0.2,0.2,0.3,0.6,0.2,0.9l-0.9,4.9c-0.1,0.7-0.7,1.2-1.4,1.2H50.9c0,0-0.1,0-0.1,0.1l-0.5,2.7l16.6,0c0.3,0,0.6,0.1,0.8,0.4
		c0.2,0.2,0.3,0.6,0.2,0.9l-1,5.5c-0.1,0.7-0.7,1.2-1.4,1.2H41.6c-0.5,0-1-0.2-1.3-0.6c-0.3-0.4-0.4-0.8-0.3-1.3v0l4.6-25.2
		c0.2-1,1.1-1.8,2.2-1.8h23.9C71.3,18.8,71.8,19.4,71.7,20.1z"/>
	<path class="st0" d="M101.6,26.6l-1.2,6.4c-0.5,2.8-2.5,5.3-5.3,6.7c0,0-0.1,0.1-0.1,0.1l3.3,5.8c0.3,0.5,0.3,1,0,1.4
		c-0.3,0.4-0.7,0.7-1.2,0.7c-2.9,0-3.8,0.1-6.3,0.1c-1.5,0-2.2-0.1-2.6-0.9l-3-5.9c-0.1-0.2-0.3-0.3-0.5-0.3l-6.5,0
		c0,0-0.1,0-0.1,0.1L77.3,46c-0.2,1-1.1,1.8-2.2,1.8h-5.3c-1.1,0-1.8-0.9-1.6-1.9l4.6-25.2c0.2-1,1.1-1.8,2.2-1.8h20.2
		C99.5,18.8,102.4,22.3,101.6,26.6z M92.1,26.8c-0.2-0.2-0.4-0.3-0.7-0.3H80.9c0,0-0.1,0-0.1,0.1L79.7,33c0,0,0,0,0,0l10.4,0
		c0.7,0,1.3-0.5,1.4-1.2l0.8-4.2C92.3,27.3,92.3,27,92.1,26.8z"/>
	<path class="st0" d="M133.2,26.6L132,33c-0.5,2.8-2.5,5.3-5.3,6.7c0,0-0.1,0.1-0.1,0.1l3.3,5.8c0.3,0.5,0.3,1,0,1.4
		c-0.3,0.4-0.7,0.7-1.2,0.7c-2.9,0-3.8,0.1-6.3,0.1c-1.5,0-2.2-0.1-2.6-0.9l-3-5.9c-0.1-0.2-0.3-0.3-0.5-0.3l-6.5,0
		c0,0-0.1,0-0.1,0.1l-0.9,5.2c-0.2,1-1.1,1.8-2.2,1.8h-5.3c-1.1,0-1.8-0.9-1.6-1.9l4.6-25.2c0.2-1,1.1-1.8,2.2-1.8h20.2
		C131,18.8,133.9,22.3,133.2,26.6z M123.7,26.8c-0.2-0.2-0.4-0.3-0.7-0.3h-10.5c0,0-0.1,0-0.1,0.1l-1.2,6.4c0,0,0,0,0,0l10.4,0
		c0.7,0,1.3-0.5,1.4-1.2l0.8-4.2C123.9,27.3,123.8,27,123.7,26.8z"/>
	<path class="st0" d="M163.7,45.4c0.3,1.1-0.5,2.3-1.6,2.3h-6.5c-0.6,0-1-0.4-1.2-0.9l-0.7-2.1h-13.3l-0.5,0.7l-1.1,1.5
		c-0.4,0.5-1,0.8-1.6,0.8h-6.8c-1.3,0-1.8-1.3-1.1-2.4l16.4-24.9c1.1-1.4,2.4-1.5,3.9-1.6v0c0.5,0,3.4,0,3.8,0
		c0.6,0,1.7,0.3,2.2,1.6L163.7,45.4z M149.4,30.9l-4.2,6.5h6.3L149.4,30.9z"/>
	<path class="st1" d="M210.3,6.8l-1.1,6.2c-0.2,1.3-1.5,2.4-2.9,2.4h-12c-0.3,0-0.5,0.2-0.6,0.5l-5.3,29.4c-0.2,1.3-1.5,2.4-2.9,2.4
		h-8.2c-1.4,0-2.3-1.1-2-2.4l5.3-29.4c0.1-0.3-0.1-0.5-0.4-0.5h-12c-1.4,0-2.3-1.1-2-2.4l1.1-6.2c0.2-1.3,1.5-2.4,2.9-2.4h38
		C209.6,4.4,210.5,5.5,210.3,6.8z"/>
	<path class="st1" d="M238.5,26.5L236,40.1c-0.8,4.2-4.9,7.6-9.1,7.6h-16.3c-4.4,0-7.2-3.5-6.5-7.7l2.5-13.6
		c0.8-4.2,4.9-7.6,9.1-7.6H232C236.4,18.8,239.2,22.3,238.5,26.5z M213.5,39.6c0.1,0.1,0.2,0.2,0.4,0.2h12.3c0.4,0,0.8-0.3,0.9-0.7
		l2.1-11.8c0-0.2,0-0.3-0.1-0.4c-0.1-0.1-0.2-0.2-0.4-0.2h-12.3c-0.4,0-0.8,0.3-0.9,0.7l-2.1,11.8C213.3,39.3,213.4,39.5,213.5,39.6
		z"/>
	<path class="st1" d="M286.5,20.6l-14.3,26c-0.4,0.7-1.2,1.2-1.9,1.2h-5.6c-0.8,0-1.4-0.5-1.6-1.2l-2.5-12.9c0-0.1-0.1-0.1-0.1-0.1
		c0,0-0.1,0-0.1,0.1l-7.3,13c-0.4,0.7-1.2,1.2-1.9,1.2h-5.6c-0.8,0-1.4-0.5-1.6-1.3l-4.9-26c-0.1-0.4,0-0.7,0.3-1.1
		c0.3-0.3,0.7-0.5,1.1-0.5h6.6c0.8,0,1.4,0.5,1.6,1.3l2.5,13.2c0,0.1,0.1,0.1,0.1,0.1c0,0,0.1,0,0.1-0.1l7.3-13.4
		c0.4-0.7,1.2-1.2,1.9-1.2h4.6c0.8,0,1.4,0.5,1.6,1.3l2.5,13.2c0,0.1,0.1,0.1,0.1,0.1c0,0,0.1,0,0.1-0.1l7.4-13.3
		c0.4-0.7,1.2-1.2,1.9-1.2h6.6c0.4,0,0.7,0.2,0.9,0.5C286.7,19.8,286.7,20.2,286.5,20.6z"/>
	<path class="st1" d="M316.3,20.8L311.8,46c-0.2,1-1.1,1.8-2.2,1.8h-5.9c-0.6,0-1.1-0.2-1.4-0.7l-8.7-15.4c0-0.1-0.1,0-0.1,0
		c0,0-0.1,0-0.1,0.1v0L290.9,46c-0.2,1-1.1,1.8-2.2,1.8h-5.3c-1.1,0-1.8-0.9-1.6-1.9l4.5-25.2c0.2-1,1.1-1.8,2.2-1.8h6.8
		c0.6,0,1.1,0.2,1.4,0.7l8,14.3c0,0.1,0.1,0,0.1,0c0,0,0.1,0,0.1-0.1l2.4-13.1c0.2-1,1.1-1.8,2.2-1.8h5.3
		C315.8,18.9,316.5,19.7,316.3,20.8z"/>
	<path class="st1" d="M346.1,20.8l-0.7,4.1c-0.2,1-1.1,1.8-2.2,1.8h-17.3c-0.4,0-0.8,0.3-0.9,0.7l-0.3,1.8c0,0.2,0,0.3,0.1,0.4
		c0.1,0.1,0.2,0.2,0.4,0.2H338c2.1,0,3.9,0.8,5.1,2.3c1.2,1.5,1.7,3.4,1.3,5.5l-0.5,2.6c-0.8,4.2-4.9,7.6-9.1,7.6l-19.4,0
		c-1.1,0-1.8-0.9-1.6-1.9l0.8-4.3c0.2-1,1.1-1.8,2.2-1.8h17.8c0.4,0,0.8-0.3,0.9-0.7l0.2-1.3c0-0.2,0-0.3-0.1-0.4
		c-0.1-0.1-0.2-0.2-0.4-0.2h-12.8c-2.1,0-3.9-0.8-5.1-2.3c-1.2-1.5-1.7-3.4-1.3-5.5l0.5-2.9c0.8-4.2,4.9-7.6,9.1-7.6h18.9
		C345.6,18.9,346.3,19.7,346.1,20.8z"/>
</g>
<g id="layer1_00000080914339757259209540000014745005380666999170_" transform="translate(-.72893 -560.19)">
	<g id="g3003_00000044161066206703632120000010532154628182537622_" transform="matrix(.75232 0 0 .75232 -62.457 287.1)">
		<g id="path3381_00000145056967520363803020000005345536850237140413_">
			<path class="st2" d="M571.5,368.3c0,0-0.1,0-0.1,0c-0.7,0.2-1.1,0.9-1.4,1.5c-2.6,3.3-5.4,6.4-7.8,9.8c-3,4-5.6,8.2-8.3,12.3
				c-0.2,0.3-0.6,0.6-0.5,1c0.2,0.8,1,1.1,1.6,1.5c1,0.6,2,1.1,3.1,1.3c0.6,0.6,0.3,1.5,0.3,2.2c0,7.2,0.2,14.3,0.1,21.5
				c1.3,1,2.9,1.6,4.4,2.2c3.3,1.2,6.8,2,10.2,3c5.8,1.7,11.5,3.4,17.4,4.8c1.4,0.3,2.9,0.7,4.3,0.9c0.6,0.1,1.2,0,1.8,0
				c0.1,0.2,0.6,0.7,0.7,0.2c0.2-0.4,0.7-0.5,1.1-0.5c1.2,0,2.3-0.4,3.4-0.7c9.7-2.5,19.3-5,29-7.5c0.3-0.2,0.8,0.1,1-0.3
				c0-0.5-0.3-0.9-0.2-1.4c0-2.2,0.1-4.4,0.1-6.6c0.1-4.2,0.2-8.5,0.3-12.7c-0.2-0.3,0.4-0.7,0.6-0.3c0.8,0.4,1.6,0.9,2.1,1.8
				c-0.1-0.3,0.3-0.7,0.6-0.5c0.2,0.4,0.3,0.9,0.7,1.1c0.4-0.4,0-0.9-0.1-1.2c-1.1-2.9-2-5.9-3.5-8.6c-2.2-3.5-3.1-4.2-3.6-5.3
				c-0.5-1.1-2.1-3-3.2-4.4c-1.7-2-3.5-4-5.7-5.5c-1.6-1-3.6-1.1-5.4-1.3c-3.9-0.5-7.8-1-11.7-1.7c0,0-0.1,0-0.2,0
				c-2.2-0.3-4.3-0.7-6.5-1.1c-5.1-0.9-10.1-1.8-15.1-2.8c-1.9-0.4-3.8-0.8-5.7-1.3C574.1,369.3,573,368.3,571.5,368.3L571.5,368.3z
				"/>
		</g>
		<g id="path3379_00000013166099945589180850000005710114515458271380_">
			<path class="st3" d="M573.8,371.5c0.1,0,0.2,0,0.3,0c1.8,0.4,3.7,0.8,5.6,1.2c-1.8,1.1-3.4,2.5-5.1,3.8c-2.2,1.7-4.5,3.2-6.6,5
				c-0.5,1.9,1.8,2,1.8,2.3c0,0.5,0,1.1-0.1,1.6c-0.1,2.6-0.3,5.2,0.1,7.7c0.9,1.4,3,1.4,4.4,2c4.7,1.4,9.4,2.7,14.2,4
				c0.3-0.1,0.5-0.2,0.7-0.4c0.2,0,0.4-0.2,0.6-0.4c0.2-0.2,0.4-0.5,0.6-0.7c0.4-0.5,0.9-1,1.3-1.4c0.3-0.3,0.5-0.6,0.7-1
				c1.3-1.9,2.6-3.8,3.8-5.8c0.6-1,1.1-2.2,1.7-3.3c0.8-1.8,1.6-3.6,2.4-5.4c0.1-0.2,0.2-0.4,0.3-0.6l0,0L589.2,398
				c0.3-1-0.1-2.6,0.2-3.5c0.2-2.4-0.4-4.6-0.1-7c-0.1,0.1,1.7,0.2,2.7-0.8c2.1-2.3,5.2-5,6.6-6.5c1.7-1.5,2.2-1.9,3.4-2.9l-0.8,1.3
				c0.3-0.5,0.6-1,0.9-1.4c0.3-0.2,0.6-0.5,0.9-0.8c0,0,0-0.1,0-0.1c4.1,0.5,8.3,1.1,12.4,1.6c0.4-0.2,0.8,0.4,0.4,0.7
				c-2.4,2.3-4.6,4.9-6.9,7.3c-5.1,5.6-10.1,11.5-14.4,17.8c-0.2,0.4-0.5,0.7-1,0.6c-0.8-0.1-1.4-0.5-2.2-0.6
				c-10.4-2.7-20.9-5.3-31.3-8.2l-5.9-1.6c-0.4-0.2-0.2-0.8,0.1-1c4.3-5,8.5-10,12.3-15.4c1.8-2.4,4.2-4.3,6.7-5.9
				C573.6,371.5,573.7,371.5,573.8,371.5L573.8,371.5z"/>
		</g>
		<g id="path3377_00000115509117769161670220000018317160677263776388_">
			<path class="st3" d="M580.2,372.8c2.9,0.6,5.7,1.1,8.6,1.5c4,0.5,8,1,11.9,1.5c-0.5,0.3-1,0.7-1.3,0.9c-3.7,2.8-5.7,6.2-9.3,9.1
				c-1.4,0.2-5.7-0.8-7.1-1.1c-3.5-0.9-9.3-1.8-12.8-2.7c-0.7-1.3,1.6-2,2.5-2.7c1.9-1.2,3-3.3,4.9-4.4
				C578.5,374.2,579.3,373.5,580.2,372.8L580.2,372.8z"/>
		</g>
		<g id="path3375_00000147178504978596115810000008579181338046961844_">
			<path class="st3" d="M618.3,378.8c2.6,1.8,4.4,4.3,6.3,6.8c1.8,2.3,3.5,4.7,5.2,7c0.1,0,0.1,0.1,0.1,0.1l0.4,0.6
				c0.4,0.7,3.2,6.1,3.6,6.7c-0.4-0.1-2.2-1.3-3.3-2c0-0.3-0.1-0.5-0.2-0.7c-0.6-1.7-1-1.8-3-4.7c-1.4-2.1-2.9-4.1-4.4-6.2
				c-1.2-1.6-2.4-3.3-3.7-4.8c-0.4-0.5-0.8-0.9-1.2-1.4c-0.2-0.2-0.4-0.4-0.6-0.5c0.1-0.1,0.2-0.2,0.2-0.3
				C617.9,379.2,618,378.8,618.3,378.8L618.3,378.8z"/>
		</g>
		<g id="path3373_00000181793117791552242670000002600514244379823233_">
			<path class="st1" d="M616.9,380.2c0.1,0,0.2,0.1,0.2,0.1c0.9,0.8,1.7,1.7,2.4,2.7c0.6,0.7,1.1,1.4,1.6,2.1
				c0.8,1.1,1.6,2.1,2.4,3.2c2.1,2.9,4.1,5.8,6,8.8c0.1,0.1,0.2,0.3,0.2,0.4c0,0,0,0.1,0,0.1c0,0,0,0,0.1,0c0,0,0,0.1,0.1,0.1
				c0.1,7.1,0.2,14.1,0.1,21.2c0.1,0.3-0.1,0.8-0.5,0.8c-5.8,1.5-11.5,3.1-17.3,4.7c0-3-0.1-5.9,0-8.9c0.1-2.1,0.2-4.3,0.3-6.4
				c0-0.8,0.1-1.6,0.1-2.4c-0.1-1.8-0.2-3.6-0.2-5.4c0-0.5,0-1.1-0.2-1.6c0.1-0.4,0-1.1-0.4-1.1c-1.3,0.4-2.6,0.8-3.9,1.1
				c-1.6,0.5-3.3,0.8-4.9,1.2c0,0,0,0.1-0.1,0.1c0,0,0,0,0,0c-0.1,0-0.2,0-0.3,0c-0.3,0.1-0.5,0.4-0.5,0.7c-0.1,0.8-0.1,1.5-0.1,2.3
				c-0.1,1.9,0,3.8,0,5.8c0.1-1.4,0-2.8,0.1-4.3c0-1.1,0-2.1,0.1-3.2c0,1.9,0,3.9,0,5.8c0,1.9-0.1,3.7-0.2,5.6
				c-0.1,1.5-0.1,3.1-0.1,4.6c0,2.8,0.1,5.6,0,8.4c0,0.2,0,0.4,0,0.5c-0.9,0.3-1.8,0.5-2.6,0.8c-0.3,0.2-0.7,0.4-1,0.1
				c-0.3-2.6,0.1-5.2,0-7.7c0.2-5.8,0.4-11.6,0.2-17.4c0.1-0.9-0.3-2,0.3-2.8C604.7,393.5,610.8,386.8,616.9,380.2L616.9,380.2z"/>
		</g>
		<g id="path3371_00000175312287066069265260000008209372572264289669_">
			<path class="st4" d="M570.6,383.7c0.2,0,0.6,0.2,0.8,0.2c5.3,1.1,11.1,2.2,16.4,3.4c0.9,0.4,0.3,2.3,0.7,3.7
				c0.1,2.1,0.1,4.3-0.2,6.5c-1,1.3-2.9-0.1-4.3-0.2c-4.2-1.1-8.4-2.2-12.6-3.4c-1.5-1.1-0.7-3.5-1.1-5.1c0-1.7-0.3-3.3,0.1-5
				C570.4,383.7,570.5,383.7,570.6,383.7L570.6,383.7z"/>
		</g>
		<g id="path3369_00000023991380359595623390000004247915855621494971_">
			<path class="st2" d="M571.9,384.8C571.9,384.8,571.9,384.8,571.9,384.8c-0.4,0.2-0.5,0.7-0.4,1c0.1,1.7,0.2,3.4,0.5,5
				c0,0.2,0.1,0.3,0.1,0.4c0,0,0,0,0,0c-0.1,0.1-0.2,0.2-0.2,0.4c0,0.3,0.1,0.6,0.2,0.8c0.1,0.3,0.1,0.6,0.4,0.7
				c0.3,0.2,0.7,0.2,1,0.3c1.6,0.4,3.1,0.7,4.7,1.1c1.5,0.3,2.9,0.6,4.3,0.9c0.7,0.2,1.5,0.3,2.2,0.6c0.4,0.1,0.8,0.3,1.2,0.5
				c0,0-0.1,0-0.1,0c-0.1,0-0.2,0-0.3,0c0.2,0,0.4,0,0.6,0c0,0,0,0,0.1,0c0.2,0,0.3,0,0.4-0.2c0,0,0,0,0,0c0.2-0.1,0.4-0.3,0.4-0.6
				c0.1-0.6,0.1-1.2,0.1-1.8c0-1.3,0-2.6-0.1-4c0-0.4-0.1-0.9-0.3-1.3c-0.2-0.3-0.5-0.5-0.9-0.7c-1-0.4-2-0.6-3-0.9
				c-3-0.7-6-1.5-9-2.2l-1.8-0.4C572.1,384.8,572,384.8,571.9,384.8L571.9,384.8z"/>
		</g>
		<g id="path3367_00000121244065682488027100000007510701508531006907_">
			<path class="st5" d="M573.1,385.5c0.1,0,0.1,0,0.2,0c1,0.2,1.9,0.4,2.8,0.6c0.8,0.2,1.6,0.4,2.5,0.6c-0.1,0.2-0.1,0.4-0.1,0.6
				c0,1.1,0.1,2.2,0.2,3.3c0,0.3,0,0.6,0,0.9c0,0.6,0.1,1.2,0.1,1.8c0,0.2,0,0.6-0.2,0.6c0,0,0,0,0,0c-0.3-0.1-0.5-0.1-0.8-0.2
				c-1.2-0.3-2.5-0.6-3.8-1c-0.3-0.1-0.5-0.4-0.7-0.7c-0.1-0.1-0.1-0.2-0.2-0.3c-0.1-0.7-0.2-1.5-0.3-2.2c-0.1-1.1-0.2-2.2-0.2-3.4
				c0-0.2,0-0.3,0.1-0.5C572.7,385.7,572.8,385.6,573.1,385.5C573,385.5,573,385.5,573.1,385.5L573.1,385.5z"/>
		</g>
		<g id="path3365_00000137849483062694135570000015992025835967091869_">
			<path class="st4" d="M579.6,387.1c0.2,0.1,0.4,0.1,0.6,0.2c-0.1,0.2-0.2,0.4-0.3,0.6c0.3-0.3,0.4,0.2,0.4,0.5
				c0.1,1.3,0.1,2.6,0.2,3.9c0,0.6,0.1,1.1,0.1,1.7c0,0.2-0.1,0.4-0.1,0.6c-0.4-0.1-0.9-0.2-1.3-0.3c0.1,0,0.2-0.1,0.4-0.1
				c0.1-0.1,0.3-0.3,0.2-0.5c-0.1,0.1-0.2,0.3-0.3,0.4c0.2-0.4,0.1-0.8,0.1-1.2c0-0.4,0-0.9-0.1-1.3c0-1.1-0.1-2.3-0.1-3.4
				C579.3,387.8,579.5,387.4,579.6,387.1C579.6,387.1,579.6,387.1,579.6,387.1L579.6,387.1z"/>
		</g>
		<g id="path3363_00000149379308346043742240000011646449703935290533_">
			<path class="st5" d="M580.7,387.4c1.1,0.3,2.2,0.6,3.3,0.9c0.5,0.2,1.1,0.3,1.5,0.5c0.1,0.1,0.3,0.2,0.4,0.3s0.2,0.2,0.3,0.4
				c0.1,0.3,0.1,0.6,0.2,1c0.1,1.3,0.2,2.5,0.2,3.8c0,0.5,0,1-0.1,1.5c0,0.1,0,0.2-0.1,0.3c-0.1-0.1-0.3-0.2-0.5-0.3
				c-0.5-0.2-1.1-0.3-1.6-0.4c-1.1-0.2-2.2-0.5-3.3-0.7c0-0.1,0-0.2,0-0.3c-0.1-1.1,0-2.2,0-3.3c0-1.1-0.2-2.3-0.3-3.4
				C580.7,387.6,580.7,387.5,580.7,387.4L580.7,387.4z"/>
		</g>
		<g id="path3361_00000094609076916096854750000017244680036211879296_">
			<path class="st6" d="M586.5,392.1C586.5,392.1,586.6,392.1,586.5,392.1C586.5,392.1,586.5,392.1,586.5,392.1z"/>
		</g>
		<g id="path3359_00000116918731723069771070000001172293568568543414_">
			<path class="st2" d="M624.8,395.7c0,0-0.1,0-0.2,0c-1.3,0.4-2.6,0.8-3.9,1.2c-1.6,0.5-3.3,0.9-4.9,1.4c-0.4,0.3-0.6,0.6-0.6,0.9
				c-0.1,0.1-0.2,0.2-0.2,0.3c-0.1,0.4-0.1,0.8-0.1,1.1c-0.1,0.9,0,1.8,0,2.8c0.1-0.7,0-1.4,0.1-2.1c0-0.5,0-1,0.1-1.6
				c0,0.9,0,1.9,0,2.8c0,0.9-0.1,1.8-0.2,2.8c-0.1,0.8-0.1,1.5-0.1,2.2c0,1.4,0.1,2.7,0,4.1c0,0.1-0.1,0.3,0.2,0.3
				c0.1,0,0.2,0,0.3,0c0,0.8,0.9,1.3,1.2,0c2.5-0.7,5.4-1.4,7.9-2.1c0.4-0.1,0.5-0.7,0.7-0.9c0.1,0,0.1-0.1,0.1-0.1c0,0,0,0,0,0
				c0.1-0.1,0.1-0.2,0-0.3c0-0.1,0-0.1,0-0.2c0-1.5-0.1-3-0.1-4.6c0.1-1,0.2-2.1,0.3-3.2c0-0.4,0.1-0.8,0.1-1.2
				c-0.1-0.8-0.2-1.7-0.2-2.5c0-0.3,0-0.5-0.2-0.7C625.2,395.9,625.1,395.7,624.8,395.7L624.8,395.7z"/>
		</g>
		<g id="path3345_00000033356752021403369010000000367884916872811437_">
			<path class="st4" d="M559.9,396.2c0.1,0,0.2,0,0.3,0.1l0.9,0.2c6.3,1.8,12.5,3.5,18.8,5.3c4,1.1,8,2.2,12,3.2
				c0.7,0.1,1.5,0.6,2.2,0.1c0.7-0.4,1.1-1.1,1.7-1.6c0.2-0.2,0.6-0.6,0.9-0.3c0.2,0.4,0.1,0.9,0.1,1.4c0,7.7,0.2,15.4,0.1,23.1
				c0,0.4,0.2,0.9-0.1,1.2c-0.4,0.3-0.8-0.1-1.3-0.2c-11.6-0.7-22.2-5.5-33.1-8.8c-0.8-0.2-1.6-0.4-2.3-0.8
				c-0.7-0.5-0.6-1.5-0.6-2.3c0.1-3.6,0.2-7.2,0.2-10.8c0-3.2,0-6.4-0.1-9.7C559.6,396.3,559.7,396.2,559.9,396.2L559.9,396.2z"/>
		</g>
		<g id="path3321_00000016035769628767276570000010217895207260958130_">
			<path class="st5" d="M623.8,397.3c0,0.8,0,1.6,0,2.3c0,0.9-0.1,1.8-0.2,2.8c-0.1,0.8-0.1,1.5-0.1,2.2c0,1.4,0.1,2.7,0,4.1
				c0,0,0,0.1,0,0.1c-0.9,0.3-1.8,0.5-2.7,0.8c-1.4,0.4-2.9,0.8-4.4,1.2c0-1.4-0.1-2.7,0-4.1c0.1-1,0.2-2.1,0.3-3.2
				c0-0.4,0.1-0.8,0.1-1.2c-0.1-0.8-0.2-1.7-0.2-2.5c0-0.2,0-0.4-0.1-0.6c2.2-0.6,4.8-1.3,7.1-1.9c0,0.1,0,0.2,0,0.3
				c-0.1,0.9,0,1.8,0,2.8c0.1-0.7,0-1.4,0.1-2.1C623.7,398,623.7,397.7,623.8,397.3C623.7,397.3,623.7,397.3,623.8,397.3
				L623.8,397.3z"/>
		</g>
		<g id="path3319_00000055695998307901400770000009027089683398069395_">
			<path class="st7" d="M610.8,400.2c0,0-0.1,0-0.1,0c-1.6,0.5-3.2,0.9-4.8,1.4c0.1,0,0.1,0,0.2,0c0,0.1,0,0.2,0,0.4
				c0,1.1,0,2.1,0,3.2c-0.1,2.9,0,5.9,0.1,8.8c0.1,2.6,0.1,5.2,0.1,7.8c0,0.5,0,1,0,1.5c0,0,0.1,0,0.1,0c0.7,0.3,1.5,0.4,2.2,0.5
				c0.7,0.1,1.3,0.3,2,0.4c0,0,0.1,0,0.1,0c0.1-2.6,0-5.2,0-7.8c0-1.5,0-3.1,0.1-4.6c0.1-1.9,0.2-3.7,0.2-5.6c0-1.9,0-3.9,0-5.8
				c-0.1,1.1,0,2.1-0.1,3.2c-0.1,1.4,0.1,2.8-0.1,4.3c0-1.9-0.1-3.8,0-5.8C610.8,401.6,610.8,400.9,610.8,400.2L610.8,400.2z"/>
		</g>
		<g id="path3307_00000165913603541891752530000003199508308835303061_">
			<path class="st8" d="M605.9,401.6c-0.7,0.2-1.4,0.4-2.2,0.5c0,0.3,0,0.7,0,1c0,1.8,0.1,3.6,0.2,5.4c0,0.8-0.1,1.6-0.1,2.4
				c-0.1,2.1-0.3,4.3-0.3,6.4c0,3.2,0,6.3,0.1,9.5c0,0,0,0,0,0.1c2.2-0.7,4.4-1.3,6.7-1.9c-0.1,0-0.3-0.1-0.4-0.1
				c-0.7-0.2-1.4-0.2-2.1-0.4c-0.4-0.1-0.9-0.2-1.3-0.5c-0.3-0.1-0.5-0.3-0.8-0.4c-0.1,0-0.2-0.3-0.1-0.5c0,0,0,0,0,0
				c0-1.3,0-2.6,0-3.9c0-2.8-0.2-5.6-0.2-8.4c0-1.7,0-3.5,0.1-5.2c0.1-1.1,0.2-2.1,0.2-3.2C605.5,402,605.7,401.7,605.9,401.6
				L605.9,401.6z"/>
		</g>
		<g id="path3305_00000181089034819860759480000013852506176247501489_">
			<path class="st2" d="M568.3,403.7c-1.2,1.2-0.4,3-0.4,4.4c0.3,1.7,0.2,3.8,1.9,5c3.1,2,3.5,2.3,7.1,3.3c2.3,0.5,4.3,1.6,6.7,1.6
				c0.8-0.1,2.8,0.3,2.6,0.3c0.2-1.2,1-2.5,0.6-3.8c-0.2-2.1-0.5-4.4-1.6-6.3c-1.2-1-3-1.1-4.6-1.6c-5.2-1.1-7-1.7-12.2-2.8
				L568.3,403.7z"/>
		</g>
		<g id="path3299_00000054234881537823003290000002294947398402618044_">
			<path class="st5" d="M570.6,405.5c3.2,0.5,3,0.8,6,1.4c-0.1,0.2-0.2,0.6-0.1,0.8c0,1.2,0.1,2.4,0.2,3.5c0,0.3,0,0.6,0,1
				c0,0.6,0.1,1.3,0.1,1.9c0,0.2,0,0.4-0.1,0.6c-1.2-0.4-2.4-0.8-4.3-1.6c-2-0.7-2.8-2.4-2.8-4c0.1-1.1-0.7-2.5,0.4-3.5
				C570.1,405.5,570.3,405.5,570.6,405.5L570.6,405.5z"/>
		</g>
		<g id="path3289_00000143585503890934912860000008420336526890749069_">
			<path class="st5" d="M577.6,407.1c2,0.5,4.1,1,6.1,1.4c1.4,0.7,1.5,2.3,1.9,3.5c0.3,1.2,0,2.4,0,3.6c0.3,0.5-0.5,2-0.4,1.8
				c-1.1-0.7-2.8-0.7-4.1-1.2c-1.6-0.6-2.6-0.9-3.6-1.3c0.1,0,0.1-0.1,0.2-0.1c0.1-0.1,0.3-0.4,0.2-0.5c-0.1,0.1-0.1,0.3-0.3,0.4
				c0.1-0.4,0.1-0.8,0.1-1.3c0-0.5,0-0.9,0-1.4c0-1.2-0.1-2.4-0.1-3.7c0-0.4,0.1-0.7,0.2-1.1C577.7,407.3,577.7,407.2,577.6,407.1
				L577.6,407.1z"/>
		</g>
		<g id="path3287_00000087399303138022750700000014894248930001547157_">
			<path class="st6" d="M565.2,420L565.2,420L565.2,420z"/>
		</g>
		<g id="path4193_00000030452513804674138660000006421749245827394692_">
			<path class="st6" d="M604.8,420.5L604.8,420.5L604.8,420.5z"/>
		</g>
	</g>
</g>
</svg>
